testWalking_myEMG.mot
nRows=31
nColumns=9

name testWalking_myEMG.mot
datacolumns 9
datarows 31
range 1.1379629630 1.1657407407
endheader
time	VASMED.Raw	VASMED.Processed	GAS.Raw	GAS.Processed	SOL.Raw	SOL.Processed	HAMLAT.Raw	HAMLAT.Processed
        1.1379629630	     3906.3999023438	 15438788.3652293680	      976.5999755859	 12229427.7609771340	   -14600.1689453125	  5224131.4480209351	    -4004.0598144531	 15388715.3822009380	
        1.1388888889	     5029.4902343750	 24914273.0187084040	    -2783.3100585938	  4599447.9843389690	   -13916.5498046875	472915639.2837591200	      439.4700012207	 11928996.8874827470	
        1.1398148148	       97.6599960327	 19637662.6855762340	     3222.7800292969	 10658129.1665148470	   -45656.0468750000	1788192956.1176033000	    -3027.4599609375	  9594700.2075425796	
        1.1407407407	     3906.3999023438	 15331491.2623175610	       97.6599960327	  3471641.1805700320	   -21289.8789062500	1293736919.6822357000	     -976.5999755859	  3037685.7086998075	
        1.1416666667	     -732.4500122070	  7665745.5616794489	    -1074.2600097656	  1373396.5156372003	    18408.9082031250	846205257.3240089400	    -1318.4099121094	  1595142.5754617751	
        1.1425925926	     2099.6899414063	  6447333.3364355266	    -2246.1801757813	  5464974.2952399477	    23829.0390625000	482426946.0150642400	     -146.4899902344	  1652367.4810390174	
        1.1435185185	     2783.3100585938	  7644287.0265953112	      390.6399841309	  2565581.1347718770	     4638.8496093750	1054785060.3346519000	    -1269.5799560547	  1247024.8359909207	
        1.1444444444	       48.8299980164	  4074886.6040796125	     1074.2600097656	  2222231.7847581059	    45167.7460937500	1731838359.4182281000	    -2490.3300781250	  8247532.3619983941	
        1.1453703704	     1464.9000244141	  2193619.4563989569	    -2734.4799804688	  7897029.6767516360	    66457.6250000000	6514085366.6627808000	     1611.3900146484	    42918.7775343806	
        1.1462962963	     -976.5999755859	  1120653.3865764141	     -390.6399841309	  2689567.9751896495	   -46437.3281250000	6414030333.4128418000	    -1025.4299316406	  2095860.3532256782	
        1.1472222222	     1416.0699462891	  3102063.8451979011	      927.7699584961	  1661904.9603346474	   -64064.9570312500	4446716444.9532547000	     1953.1999511719	   541251.6005813479	
        1.1481481481	     1123.0900878906	  3717230.7426758707	     2050.8598632813	  8011478.5192934871	     7373.3295898438	1524663134.5779822000	    -4248.2099609375	 10989556.2572388650	
        1.1490740741	     3515.7600097656	 12141206.4992116280	    -4101.7197265625	 15221808.9863783420	    22950.0996093750	116981918.7463150000	     3613.4199218750	 10152642.2590502500	
        1.1500000000	      195.3199920654	 20734470.9165240680	      781.2799682617	  1993332.1862918995	    55568.5390625000	1923503752.9688568000	     -683.6199951172	 11177921.2639582010	
        1.1509259259	     5908.4296875000	 34537579.8397954180	     -634.7899780273	  4556528.7180277370	    50734.3671875000	4440803254.3668213000	     3222.7800292969	  9818831.3748268560	
        1.1518518519	     1904.3699951172	 35610543.8874528260	     6347.8999023438	 41318727.4021679540	   -33595.0390625000	4113844345.8060303000	     -830.1099243164	  2773021.2192963324	
        1.1527777778	     6640.8793945313	 33686355.8786031010	     1611.3900146484	 23130761.5739979590	   -58840.1484375000	2983152895.1690903000	     1074.2600097656	   991897.5047507258	
        1.1537037037	     5468.9599609375	  9976195.2307252884	     4052.8898925781	 14458812.1209798460	   -14258.3603515625	786553236.6909036600	     -195.3199920654	  1979026.1595808102	
        1.1546296296	     6006.0898437500	 21118353.6840281490	     1220.7500000000	  9196509.8516258001	     9912.4902343750	255606740.0890102400	    -1806.7099609375	  3102063.8191198679	
        1.1555555556	     2734.4799804688	 15395869.1466038230	     2636.8198242188	  1766816.4755785465	    11035.5800781250	  2229386.1422500610	     -830.1099243164	   777304.1302573010	
        1.1564814815	    -1318.4099121094	 12148359.1973955040	     4248.2099609375	 30794122.9558506010	    12061.0097656250	 44213361.2334327700	       48.8299980164	  3285660.0284471726	
        1.1574074074	     5078.3198242188	 31390214.3582749370	    -4834.1699218750	 35815604.5845477580	    17188.1601562500	 54985914.3107719420	     3955.2299804688	 15684378.4643565570	
        1.1583333333	     4248.2099609375	 14327672.4549683630	    -2929.8000488281	  3154520.0036764741	    29053.8496093750	548693327.5672798200	     -830.1099243164	 10319548.9022416440	
        1.1592592593	      732.4500122070	  3440644.2931349613	    -1123.0900878906	 11132618.0979727510	    17188.1601562500	599034512.5438652000	     2783.3100585938	  6409184.0391651168	
        1.1601851852	     -683.6199951172	  3323810.3021536618	     3369.2697753906	  7513144.7544569969	   -10449.6191406250	1238889454.9511757000	    -1611.3900146484	  4062964.4811407179	
        1.1611111111	     5175.9799804688	 25655809.2733974610	    -3418.0998535156	 10367235.1170123590	   -65725.1796875000	3732495871.6123352000	     2392.6699218750	  5724869.3550453186	
        1.1620370370	    -1660.2198486328	  2045788.7858617455	      390.6399841309	 16704888.0704012590	   -56203.3281250000	1470690451.4936676000	        0.0000000000	  4206026.6139485836	
        1.1629629630	      927.7699584961	  4327628.9467014335	    -4931.8300781250	 24990571.1557659620	   -25684.5800781250	929314892.4209556600	     1757.8800048828	  3090142.1115667969	
        1.1638888889	    -3125.1198730469	  6957587.8186049461	    -1709.0499267578	 13214173.4795300810	   -28272.5703125000	757950356.2069275400	    -3173.9499511719	  5009558.7863771021	
        1.1648148148	     3027.4599609375	 25035872.0194336180	    -3271.6101074219	 13207019.9744173440	    -1611.3900146484	1401093304.5418210000	     2880.9699707031	  6905132.1831772104	
        1.1657407407	     5078.3198242188	 14997678.4688096050	     1464.9000244141	 10772578.4698927550	    49464.7890625000	2508925853.5267949000	     -439.4700012207	  4835500.1252659420	
